<?xml version="1.0" standalone="no"?>
<!DOCTYPE svg PUBLIC "-//W3C//DTD SVG 20010904//EN"
 "http://www.w3.org/TR/2001/REC-SVG-20010904/DTD/svg10.dtd">
<svg version="1.0" xmlns="http://www.w3.org/2000/svg"
 width="325.000000pt" height="260.000000pt" viewBox="0 0 325.000000 260.000000"
 preserveAspectRatio="xMidYMid meet">
<metadata>
Created by potrace 1.14, written by Peter Selinger 2001-2017
</metadata>
<g transform="translate(0.000000,260.000000) scale(0.100000,-0.100000)"
fill="#000000" stroke="none">
<path d="M1555 2043 c91 -80 509 -439 515 -441 5 -2 2 18 -7 45 -15 46 -22 53
-216 193 -232 168 -320 229 -292 203z"/>
<path d="M1450 2035 c0 -6 613 -595 617 -592 1 2 -5 30 -13 62 -12 44 -24 67
-47 86 -124 103 -557 448 -557 444z"/>
<path d="M1327 1818 c-36 -84 -67 -158 -69 -164 -3 -10 163 -316 169 -310 1 1
-22 89 -52 195 l-54 193 43 119 c24 66 40 119 36 119 -4 0 -37 -69 -73 -152z"/>
<path d="M1191 1725 c-6 -41 -13 -105 -16 -142 l-6 -68 102 -105 c56 -58 100
-100 98 -95 -2 6 -41 72 -87 147 l-83 138 7 100 c4 55 5 100 2 100 -3 0 -11
-34 -17 -75z"/>
<path d="M665 900 c-47 -15 -89 -64 -89 -105 0 -39 36 -85 66 -85 27 0 22 24
-12 48 -39 29 -41 72 -4 101 36 28 126 29 172 1 57 -35 33 -107 -43 -126 l-29
-7 39 -14 c43 -15 55 -27 55 -59 0 -46 -65 -71 -102 -37 -17 15 -18 15 -18 0
0 -28 46 -50 88 -44 72 12 105 85 59 131 l-23 23 28 25 c38 34 37 77 -1 120
-26 29 -35 32 -92 35 -35 1 -78 -2 -94 -7z"/>
<path d="M1492 888 c-11 -13 -25 -36 -31 -51 -11 -27 -13 -28 -76 -26 -36 1
-68 -1 -71 -4 -16 -15 13 -27 66 -27 l60 0 -6 -62 c-5 -51 -12 -69 -35 -93
-28 -28 -29 -29 -29 -7 0 12 8 44 19 71 10 27 15 55 11 62 -15 24 -39 -1 -56
-58 -16 -56 -38 -93 -56 -93 -14 0 -9 40 12 80 27 53 27 82 -1 78 -15 -2 -28
-20 -45 -62 -24 -60 -49 -96 -67 -96 -5 0 -6 12 -2 28 13 50 14 106 3 119 -15
19 -62 16 -81 -5 -9 -10 -23 -34 -31 -54 -32 -76 -156 -109 -156 -42 0 3 7 1
16 -4 60 -33 125 57 74 103 -19 17 -22 18 -55 2 -43 -21 -81 -91 -71 -131 8
-34 49 -60 81 -52 13 3 40 20 59 36 l34 30 6 -24 c8 -32 34 -41 58 -19 19 17
20 17 29 0 14 -23 55 -21 72 4 l15 21 7 -21 c8 -25 46 -28 65 -6 12 14 15 14
30 0 25 -23 46 -18 71 17 16 22 24 27 27 17 15 -47 59 -62 90 -31 21 21 92 25
92 5 0 -7 -14 -20 -31 -28 -66 -35 -91 -92 -50 -115 36 -19 67 4 99 72 16 35
44 76 61 92 l31 30 0 -27 c0 -38 39 -56 74 -34 27 18 60 97 71 170 4 26 16 58
26 71 23 29 24 36 4 36 -31 0 -63 -50 -80 -123 -8 -40 -20 -84 -26 -99 -14
-35 -39 -45 -46 -18 -3 11 -9 20 -14 20 -5 0 -9 7 -9 16 0 10 -8 7 -26 -13
l-25 -28 6 30 c18 90 18 115 1 115 -17 0 -30 -24 -40 -72 -10 -43 -56 -79 -56
-43 0 9 9 34 20 56 22 43 20 59 -10 59 -13 0 -24 -16 -40 -57 -40 -108 -73
-134 -86 -67 -5 28 -1 49 22 95 l28 59 68 0 c44 0 67 4 63 10 -3 6 -33 10 -67
10 -53 0 -59 2 -53 18 4 9 9 32 12 50 5 27 3 32 -14 32 -11 0 -29 -10 -41 -22z"/>
<path d="M1805 895 c-41 -15 -70 -45 -80 -83 -11 -46 51 -120 78 -93 9 9 3 18
-21 37 -51 40 -41 102 19 123 63 22 150 7 169 -29 27 -51 -2 -110 -63 -126
-18 -4 -25 -10 -19 -16 14 -14 91 10 118 37 28 29 32 79 8 114 -34 48 -128 65
-209 36z"/>
<path d="M2081 883 c-47 -58 -75 -257 -42 -296 17 -21 39 -22 62 -1 17 15 19
15 34 0 20 -20 24 -20 48 1 18 17 19 17 28 0 13 -23 56 -22 71 2 12 19 13 19
41 -5 16 -13 35 -24 43 -24 22 0 66 25 88 49 l20 22 12 -29 c23 -56 96 -47
159 18 38 39 25 49 -19 15 -25 -19 -44 -25 -67 -23 -43 4 -51 27 -9 26 58 -2
97 65 60 102 -33 33 -74 15 -117 -53 -28 -44 -77 -77 -114 -77 -43 0 -54 60
-20 101 16 19 22 21 32 12 10 -10 10 -18 -1 -38 -12 -23 -12 -28 0 -35 31 -19
69 34 54 74 -19 48 -82 37 -119 -21 -11 -18 -29 -47 -40 -64 -27 -44 -50 -51
-41 -13 13 52 15 108 4 121 -15 19 -62 16 -81 -4 -8 -10 -26 -43 -40 -74 -13
-31 -31 -59 -40 -62 -40 -15 -36 31 13 153 45 113 50 150 21 150 -11 0 -29
-12 -40 -27z"/>
</g>
</svg>
